<svg width="24" height="24" viewBox="0 0 24 24" fill="none" xmlns="http://www.w3.org/2000/svg">
<path d="M12.2031 3.4217C12.9692 3.43497 13.7136 3.55127 14.4425 3.76623C15.7013 4.13748 16.8182 4.76463 17.788 5.64742C18.9156 6.67384 19.7191 7.91334 20.1911 9.3648C20.4517 10.1661 20.5872 10.9885 20.604 11.8314C20.6325 13.2665 20.3255 14.6248 19.6773 15.9049C19.2165 16.8149 18.6101 17.6169 17.8615 18.3098C16.6862 19.3975 15.3133 20.1047 13.7463 20.4329C13.2357 20.5399 12.7186 20.5928 12.1966 20.6042C11.2707 20.6244 10.365 20.5012 9.48051 20.2283C8.28306 19.8589 7.21675 19.255 6.28321 18.4192C5.3252 17.5616 4.59332 16.5402 4.09216 15.356C3.7082 14.4487 3.48835 13.5022 3.4334 12.5177C3.34678 10.9658 3.64947 9.49473 4.35336 8.10871C4.81324 7.20317 5.41812 6.40498 6.16375 5.71505C7.33914 4.62746 8.71203 3.92028 10.279 3.59202C10.7876 3.48549 11.3025 3.42887 11.8224 3.42195C11.9473 3.42029 12.0722 3.42171 12.2031 3.4217ZM10.643 8.43734C10.3369 8.36838 10.026 8.34063 9.71314 8.34013C8.59235 8.33831 7.47154 8.3394 6.35074 8.33939C6.32897 8.33939 6.3072 8.33939 6.28668 8.33939C6.28668 10.7479 6.28668 13.1466 6.28668 15.5496C6.31399 15.5496 6.33657 15.5496 6.35915 15.5496C7.41954 15.5496 8.47993 15.5508 9.54031 15.5485C9.75032 15.548 9.96108 15.5424 10.1701 15.5238C10.5848 15.487 10.9811 15.3816 11.3465 15.1751C11.7476 14.9484 12.0442 14.6273 12.1982 14.1909C12.358 13.7382 12.359 13.2754 12.2302 12.8146C12.095 12.331 11.8034 11.9733 11.3456 11.7584C11.2412 11.7094 11.1325 11.6697 11.021 11.6237C11.0865 11.5871 11.1504 11.554 11.2116 11.5166C11.5537 11.3073 11.813 11.0309 11.9198 10.6332C12.0028 10.324 12.0021 10.0113 11.9487 9.69815C11.8743 9.26252 11.6583 8.91859 11.2783 8.68448C11.0847 8.56529 10.873 8.49191 10.643 8.43734ZM14.8688 13.2857C15.9075 13.2857 16.9463 13.2857 17.9883 13.2857C17.9883 13.1086 17.9963 12.9379 17.9868 12.7682C17.9591 12.2752 17.8373 11.8073 17.5898 11.3763C17.3192 10.9051 16.9362 10.5587 16.4309 10.3564C15.9522 10.1648 15.4536 10.1355 14.9509 10.2257C14.1405 10.3712 13.5122 10.7949 13.1276 11.527C12.6783 12.3825 12.6649 13.2749 13.0177 14.1657C13.2965 14.8698 13.8146 15.333 14.5417 15.553C15.1176 15.7272 15.6994 15.7306 16.2796 15.5794C16.7118 15.4667 17.0909 15.258 17.3831 14.9106C17.6115 14.639 17.7646 14.3267 17.8775 13.9927C17.8837 13.9742 17.8892 13.9555 17.8974 13.9295C17.479 13.9295 17.0712 13.9292 16.6633 13.9307C16.6499 13.9308 16.6299 13.9467 16.6242 13.96C16.512 14.2203 16.3071 14.3873 16.0574 14.4966C15.6889 14.658 15.3101 14.6433 14.9355 14.5147C14.6699 14.4236 14.4835 14.2408 14.369 13.9842C14.2988 13.8268 14.2556 13.6625 14.2376 13.4916C14.2305 13.4244 14.2277 13.3569 14.2227 13.2857C14.4402 13.2857 14.6482 13.2857 14.8688 13.2857ZM14.2313 9.53747C15.103 9.53747 15.9747 9.53747 16.8471 9.53747C16.8471 9.29593 16.8471 9.06199 16.8471 8.82756C15.8736 8.82756 14.9044 8.82756 13.9338 8.82756C13.9338 9.0655 13.9338 9.29967 13.9338 9.53747C14.0317 9.53747 14.1252 9.53747 14.2313 9.53747Z" fill="#323232"/>
<path d="M10.6481 8.43829C10.873 8.49195 11.0847 8.56532 11.2783 8.68452C11.6583 8.91862 11.8743 9.26256 11.9487 9.69818C12.0021 10.0113 12.0028 10.324 11.9198 10.6332C11.813 11.0309 11.5537 11.3074 11.2116 11.5166C11.1504 11.5541 11.0865 11.5871 11.021 11.6238C11.1325 11.6697 11.2412 11.7094 11.3456 11.7584C11.8034 11.9733 12.095 12.331 12.2302 12.8147C12.359 13.2755 12.358 13.7382 12.1982 14.191C12.0442 14.6273 11.7476 14.9485 11.3465 15.1751C10.9811 15.3816 10.5848 15.4871 10.1701 15.5238C9.96108 15.5424 9.75032 15.548 9.54031 15.5485C8.47993 15.5509 7.41954 15.5496 6.35915 15.5496C6.33657 15.5496 6.31399 15.5496 6.28668 15.5496C6.28668 13.1466 6.28668 10.748 6.28668 8.33942C6.3072 8.33942 6.32897 8.33942 6.35074 8.33942C7.47154 8.33943 8.59234 8.33835 9.71314 8.34016C10.026 8.34067 10.3369 8.36842 10.6481 8.43829ZM7.87343 13.8688C7.87343 14.0177 7.87343 14.1666 7.87343 14.319C7.8941 14.319 7.90642 14.319 7.91874 14.319C8.46852 14.3189 9.01838 14.3243 9.56803 14.3158C9.74329 14.3131 9.92247 14.2911 10.092 14.2474C10.4191 14.163 10.6426 13.9593 10.7094 13.6156C10.7492 13.4108 10.7395 13.2047 10.6884 13.0023C10.6304 12.7724 10.4991 12.599 10.2854 12.4888C10.0904 12.3883 9.88173 12.3423 9.66559 12.3405C9.0763 12.3356 8.48695 12.3377 7.89762 12.3373C7.89005 12.3373 7.88247 12.3403 7.87343 12.3422C7.87343 12.8487 7.87343 13.3525 7.87343 13.8688ZM7.87344 10.8063C7.87344 10.9532 7.87344 11.1001 7.87344 11.2501C7.90264 11.2501 7.92319 11.2501 7.94375 11.2501C8.46 11.2501 8.97628 11.2525 9.4925 11.2482C9.60592 11.2473 9.7222 11.2347 9.83185 11.2066C10.0628 11.1476 10.2635 11.0374 10.3652 10.8049C10.4459 10.6207 10.4549 10.4267 10.4289 10.2293C10.3942 9.96593 10.2493 9.78884 10.0097 9.68284C9.84911 9.61181 9.67909 9.57937 9.5061 9.57757C8.96706 9.57196 8.42796 9.57336 7.88888 9.57227C7.88549 9.57226 7.88209 9.57559 7.87344 9.58011C7.87344 9.98285 7.87344 10.3883 7.87344 10.8063Z" fill="#FEFEFE"/>
<path d="M14.8625 13.2856C14.6482 13.2856 14.4402 13.2856 14.2227 13.2856C14.2277 13.3568 14.2305 13.4244 14.2376 13.4915C14.2556 13.6624 14.2988 13.8267 14.369 13.9841C14.4835 14.2408 14.6699 14.4235 14.9355 14.5146C15.3101 14.6433 15.6889 14.6579 16.0574 14.4965C16.3071 14.3872 16.512 14.2202 16.6242 13.9599C16.6299 13.9466 16.6499 13.9307 16.6633 13.9307C17.0712 13.9291 17.479 13.9294 17.8974 13.9294C17.8892 13.9554 17.8837 13.9742 17.8775 13.9926C17.7646 14.3266 17.6115 14.6389 17.3831 14.9105C17.0909 15.2579 16.7118 15.4666 16.2796 15.5793C15.6994 15.7305 15.1176 15.7271 14.5417 15.5529C13.8146 15.3329 13.2965 14.8697 13.0177 14.1656C12.6649 13.2748 12.6783 12.3824 13.1276 11.5269C13.5122 10.7948 14.1405 10.3712 14.9509 10.2257C15.4536 10.1354 15.9522 10.1647 16.4309 10.3563C16.9362 10.5586 17.3192 10.905 17.5898 11.3763C17.8373 11.8072 17.9591 12.2751 17.9868 12.7682C17.9963 12.9378 17.9883 13.1085 17.9883 13.2856C16.9463 13.2856 15.9075 13.2856 14.8625 13.2856ZM15.6901 11.2907C15.6302 11.2836 15.5705 11.2729 15.5103 11.2698C15.2259 11.2553 14.9558 11.295 14.7129 11.4619C14.4247 11.66 14.2841 11.9401 14.2369 12.2768C14.2324 12.3086 14.2301 12.3408 14.2268 12.3732C15.006 12.3732 15.7774 12.3732 16.5492 12.3732C16.5024 11.9011 16.2855 11.3862 15.6901 11.2907Z" fill="#FEFEFE"/>
<path d="M14.225 9.53742C14.1252 9.53742 14.0317 9.53742 13.9338 9.53742C13.9338 9.29962 13.9338 9.06544 13.9338 8.82751C14.9044 8.82751 15.8736 8.82751 16.8471 8.82751C16.8471 9.06194 16.8471 9.29588 16.8471 9.53742C15.9747 9.53742 15.103 9.53742 14.225 9.53742Z" fill="#FDFDFD"/>
<path d="M7.87344 13.8625C7.87344 13.3524 7.87344 12.8486 7.87344 12.3422C7.88247 12.3403 7.89005 12.3372 7.89763 12.3373C8.48695 12.3377 9.0763 12.3356 9.66559 12.3404C9.88173 12.3422 10.0904 12.3883 10.2854 12.4888C10.4991 12.5989 10.6304 12.7723 10.6884 13.0023C10.7395 13.2047 10.7492 13.4108 10.7094 13.6155C10.6426 13.9592 10.4191 14.163 10.092 14.2473C9.92247 14.291 9.74329 14.313 9.56803 14.3157C9.01838 14.3242 8.46852 14.3189 7.91874 14.3189C7.90642 14.3189 7.89411 14.3189 7.87344 14.3189C7.87344 14.1665 7.87344 14.0176 7.87344 13.8625Z" fill="#323232"/>
<path d="M7.87344 10.8001C7.87344 10.3883 7.87344 9.98284 7.87344 9.58011C7.88209 9.57559 7.88549 9.57226 7.88888 9.57227C8.42796 9.57335 8.96706 9.57196 9.5061 9.57757C9.67909 9.57937 9.84911 9.6118 10.0097 9.68284C10.2493 9.78883 10.3942 9.96593 10.4289 10.2293C10.4549 10.4267 10.4459 10.6207 10.3652 10.8049C10.2635 11.0374 10.0628 11.1476 9.83185 11.2066C9.7222 11.2347 9.60593 11.2473 9.4925 11.2482C8.97628 11.2525 8.46 11.2501 7.94375 11.2501C7.92319 11.2501 7.90264 11.2501 7.87344 11.2501C7.87344 11.1001 7.87344 10.9532 7.87344 10.8001Z" fill="#323232"/>
<path d="M15.6955 11.2914C16.2855 11.3862 16.5024 11.9012 16.5492 12.3732C15.7774 12.3732 15.006 12.3732 14.2268 12.3732C14.2301 12.3408 14.2324 12.3087 14.2369 12.2768C14.2841 11.9402 14.4247 11.6601 14.7129 11.4619C14.9558 11.295 15.2259 11.2553 15.5103 11.2699C15.5705 11.2729 15.6302 11.2836 15.6955 11.2914Z" fill="#323232"/>
</svg>
