<svg width="18" height="17" viewBox="0 0 18 17" fill="none" xmlns="http://www.w3.org/2000/svg">
<path d="M5.835 1.62366C6.48 1.58216 7.11834 1.57552 7.75667 1.56722C8.54 1.55726 9.32334 1.55892 10.1067 1.5639C10.62 1.56722 11.1333 1.56888 11.6467 1.59212C12.25 1.61868 12.8483 1.67347 13.4233 1.87103C14.4067 2.2097 15.12 2.8472 15.5533 3.79017C15.765 4.24837 15.8733 4.73646 15.92 5.23782C15.9833 5.92181 15.9883 6.60745 15.9883 7.2931C15.9867 8.40872 15.9917 9.52269 15.98 10.6383C15.975 11.1181 15.96 11.5995 15.8883 12.0777C15.7217 13.195 15.225 14.1147 14.2667 14.7555C13.82 15.0543 13.32 15.2253 12.795 15.3266C12.35 15.4129 11.8967 15.4262 11.445 15.4461C11.0533 15.4644 10.6617 15.4544 10.27 15.4627C9.49167 15.481 8.715 15.4743 7.93667 15.4677C7.42 15.4644 6.90334 15.4677 6.38834 15.4411C5.86167 15.4129 5.33667 15.3781 4.825 15.2303C3.65834 14.8916 2.84 14.1695 2.39334 13.0389C2.20834 12.5724 2.12333 12.0826 2.09167 11.5829C2.00333 10.1685 2.055 8.75071 2.04167 7.3346C2.03833 7.01585 2.03667 6.69876 2.04834 6.38001C2.065 5.86868 2.07167 5.35735 2.15834 4.85267C2.37 3.61585 2.98334 2.65794 4.12 2.0719C4.57834 1.83616 5.07334 1.71165 5.58334 1.65189C5.66334 1.64192 5.74334 1.63196 5.83 1.622M4.87 13.9005C5.09334 13.9885 5.32167 14.0533 5.55834 14.0898C6.08667 14.1728 6.62 14.1827 7.15167 14.1844C8.70167 14.1894 10.2517 14.2193 11.8 14.1545C12.135 14.1396 12.4683 14.1064 12.795 14.02C13.4033 13.8607 13.895 13.5369 14.235 13.004C14.48 12.6205 14.59 12.1906 14.6433 11.744C14.695 11.309 14.7067 10.8724 14.7083 10.4358C14.7117 8.87855 14.745 7.32132 14.68 5.76409C14.6683 5.46858 14.6417 5.17474 14.5783 4.88421C14.4467 4.27161 14.1533 3.75862 13.6367 3.38841C13.2267 3.09456 12.7533 2.96673 12.26 2.90862C11.8183 2.85716 11.3733 2.84554 10.93 2.84388C9.525 2.83724 8.12 2.81898 6.715 2.85716C6.36834 2.86712 6.02167 2.87542 5.67667 2.92356C5.3 2.97669 4.935 3.06966 4.60334 3.25892C3.9 3.66067 3.55 4.29485 3.42167 5.07181C3.34 5.56819 3.32834 6.06956 3.32667 6.56761C3.32167 8.11321 3.28834 9.66048 3.35167 11.2061C3.36334 11.4916 3.38334 11.7739 3.43834 12.0544C3.60334 12.9028 4.04167 13.5419 4.86834 13.8972L4.87 13.9005Z" fill="#323232"/>
<path d="M8.74166 4.95229C9.46333 4.90248 10.1383 5.04193 10.76 5.39223C11.67 5.90522 12.2667 6.66889 12.5033 7.68324C12.7783 8.86195 12.5167 9.92777 11.73 10.8525C11.16 11.5215 10.425 11.9133 9.555 12.0511C8.14333 12.2752 6.69833 11.6029 5.95667 10.386C5.66167 9.90287 5.485 9.38158 5.44167 8.81713C5.365 7.82602 5.64333 6.94779 6.29 6.19076C6.865 5.51674 7.60167 5.12162 8.47667 4.97885C8.56167 4.96557 8.64833 4.96059 8.74 4.95063M11.1783 7.69984C11.17 7.67992 11.1617 7.66 11.1517 7.63842C10.7367 6.65229 9.73167 6.08783 8.67 6.24389C7.41167 6.42817 6.53167 7.62182 6.735 8.87192C6.97833 10.3611 8.53167 11.2194 9.92333 10.6333C10.765 10.2797 11.3283 9.43305 11.3267 8.52328C11.3267 8.24438 11.2783 7.97377 11.1767 7.69984H11.1783Z" fill="#323232"/>
<path d="M12.0233 5.27103C11.6833 4.70159 12.03 4.01429 12.6867 3.96946C13.1233 3.93958 13.5017 4.23841 13.57 4.67171C13.6517 5.193 13.285 5.63792 12.7533 5.65452C12.4467 5.66448 12.2017 5.53167 12.0233 5.26937V5.27103Z" fill="#323232"/>
</svg>
