<svg width="15" height="15" viewBox="0 0 15 15" fill="none" xmlns="http://www.w3.org/2000/svg">
<path d="M2.91097 13.7795C2.6043 13.5337 2.32121 13.2693 2.05804 12.9819C1.75308 12.6489 1.47835 12.2918 1.23122 11.9123C0.851078 11.3285 0.554007 10.7032 0.345805 10.0342C0.219755 9.62923 0.126787 9.2162 0.0754817 8.7942C0.051814 8.59953 0.0353593 8.40386 0.0191172 8.20833C-0.00752512 7.88761 -0.00279971 7.56585 0.0119646 7.24524C0.0356001 6.73199 0.112271 6.22561 0.238771 5.72791C0.371936 5.20399 0.558189 4.70041 0.799084 4.21857C1.09166 3.63336 1.44725 3.09175 1.87145 2.59771C2.28313 2.11825 2.74683 1.69979 3.26157 1.33992C3.57912 1.11791 3.90944 0.918503 4.25549 0.747457C4.79297 0.481792 5.35384 0.285075 5.93871 0.161938C6.25724 0.0948761 6.57866 0.0505562 6.90309 0.0245949C7.18572 0.00197817 7.46863 -0.00548331 7.75124 0.00405646C8.43435 0.0271158 9.10436 0.136055 9.75754 0.346891C10.14 0.470336 10.5105 0.623976 10.8676 0.810068C11.4585 1.11797 12.0041 1.49557 12.4995 1.9474C12.9755 2.38153 13.3887 2.87235 13.742 3.41571C14.1216 3.99951 14.4236 4.6227 14.6359 5.29026C14.7696 5.7104 14.8692 6.13909 14.9238 6.5777C14.9483 6.77467 14.9647 6.97279 14.9812 7.1707C15.0077 7.48902 15.0024 7.80833 14.9885 8.12662C14.9693 8.56507 14.9096 8.999 14.8147 9.42756C14.7088 9.90605 14.5592 10.3696 14.3618 10.8164C14.2101 11.1598 14.035 11.4904 13.8357 11.8076C13.5869 12.2037 13.3074 12.5755 12.9972 12.9225C12.6341 13.3287 12.232 13.6901 11.7909 14.0054C11.4639 14.2391 11.1199 14.4429 10.7602 14.6187C10.4791 14.7561 10.1907 14.8756 9.89472 14.9746C9.80235 15.0056 9.70581 15.0083 9.61093 14.9824C9.4718 14.9443 9.37005 14.8032 9.36374 14.6426C9.3628 14.6186 9.36344 14.5946 9.36344 14.5706C9.36343 13.9205 9.3632 13.2704 9.36354 12.6203C9.36367 12.3851 9.35546 12.1507 9.30685 11.9197C9.25385 11.6679 9.16292 11.4337 8.99993 11.2338C8.95979 11.1846 8.91537 11.139 8.86488 11.0828C8.8926 11.0764 8.91131 11.0702 8.93047 11.068C9.22568 11.0331 9.51893 10.9856 9.80661 10.9088C10.2917 10.7793 10.7391 10.5667 11.1412 10.2578C11.5 9.98209 11.7571 9.6257 11.9324 9.2048C12.0961 8.81172 12.1969 8.40226 12.2431 7.97773C12.273 7.7034 12.2892 7.42824 12.2787 7.1528C12.2593 6.64643 12.137 6.16869 11.8801 5.73116C11.7881 5.57448 11.6838 5.4273 11.5638 5.29226C11.5259 5.24958 11.5127 5.21363 11.5348 5.15315C11.6164 4.92971 11.6588 4.69804 11.6685 4.45825C11.6823 4.11586 11.6252 3.78595 11.5265 3.46147C11.5056 3.39284 11.478 3.32629 11.459 3.25717C11.4426 3.19699 11.406 3.1719 11.3483 3.16812C11.2335 3.1606 11.1195 3.16233 11.0062 3.18673C10.7897 3.23335 10.5864 3.3191 10.3831 3.40503C10.0572 3.54276 9.75523 3.72503 9.46139 3.92264C9.44576 3.93315 9.42891 3.94188 9.41375 3.95303C9.38711 3.97264 9.36079 3.9743 9.3281 3.96655C9.1209 3.91745 8.91448 3.8625 8.70503 3.82637C8.48189 3.78788 8.25623 3.76154 8.03067 3.74206C7.83066 3.72479 7.62919 3.71588 7.42852 3.71812C7.08256 3.72198 6.73698 3.74484 6.39602 3.80836C6.16163 3.85202 5.92903 3.90629 5.69667 3.96051C5.64387 3.97282 5.60424 3.96661 5.56031 3.93528C5.13438 3.6315 4.66707 3.41378 4.17713 3.24471C4.02811 3.19329 3.87516 3.16042 3.71612 3.16415C3.56873 3.16761 3.56284 3.16842 3.51514 3.30771C3.41716 3.59382 3.3521 3.88653 3.33188 4.19059C3.30938 4.5288 3.35693 4.85457 3.47123 5.17091C3.48669 5.2137 3.47915 5.24046 3.45085 5.27265C3.31264 5.42982 3.19145 5.59991 3.08948 5.78422C2.9227 6.08567 2.81522 6.40802 2.76036 6.74972C2.72107 6.99449 2.71259 7.24111 2.72147 7.48787C2.73658 7.90784 2.78331 8.32387 2.90251 8.72805C3.00725 9.08318 3.14285 9.4245 3.35374 9.72918C3.58246 10.0596 3.8777 10.3135 4.22214 10.5092C4.50342 10.669 4.79592 10.8017 5.10695 10.8883C5.3849 10.9656 5.66774 11.0177 5.95343 11.0541C6.00664 11.0609 6.05979 11.0682 6.1199 11.0762C6.11301 11.0896 6.11013 11.1007 6.10328 11.1078C5.8683 11.3488 5.73962 11.6443 5.67969 11.975C5.67798 11.9844 5.67404 11.9939 5.67439 12.0032C5.67792 12.0966 5.62235 12.1332 5.54511 12.1633C5.3017 12.258 5.05029 12.3055 4.79104 12.3088C4.68851 12.3102 4.58434 12.3099 4.48354 12.2934C4.24837 12.2551 4.04866 12.1372 3.86967 11.98C3.72064 11.849 3.60068 11.6933 3.50482 11.5187C3.33933 11.2174 3.10392 10.9928 2.80887 10.8278C2.63159 10.7287 2.44444 10.6798 2.24421 10.6847C2.1866 10.6861 2.12776 10.698 2.07231 10.7149C1.99231 10.7392 1.97299 10.7961 2.01301 10.8712C2.07532 10.9882 2.1658 11.0805 2.27842 11.1418C2.48339 11.2532 2.62985 11.4236 2.76506 11.6097C2.91745 11.8196 3.0298 12.0511 3.11826 12.2943C3.23411 12.6127 3.44121 12.8454 3.72693 13.0102C3.89408 13.1066 4.07352 13.1647 4.26234 13.1956C4.48197 13.2315 4.70301 13.252 4.92519 13.2543C5.1313 13.2565 5.33587 13.2353 5.53841 13.1947C5.56712 13.189 5.5968 13.1883 5.63247 13.1846C5.63424 13.2188 5.63662 13.2445 5.63675 13.2703C5.63856 13.6157 5.6395 13.9611 5.642 14.3066C5.64267 14.4 5.6495 14.4934 5.65038 14.5868C5.65104 14.6567 5.63979 14.7254 5.60969 14.7892C5.55086 14.9141 5.45411 14.9847 5.3192 14.9958C5.2323 15.0029 5.14723 14.9923 5.06368 14.9626C4.68951 14.8296 4.32562 14.6721 3.97525 14.4829C3.60197 14.2812 3.24747 14.0493 2.91097 13.7795Z" fill="#323232"/>
</svg>
