<svg width="13" height="13" viewBox="0 0 13 13" fill="none" xmlns="http://www.w3.org/2000/svg">
<path d="M0 12.1767C1.87778e-07 8.39663 1.87165e-07 4.6166 7.40939e-06 0.824126C0.00435295 0.803248 0.0112007 0.795221 0.0126661 0.786309C0.0616279 0.488532 0.220745 0.265528 0.484819 0.125877C0.5941 0.0680857 0.719635 0.0410325 0.837778 0C4.59855 0 8.35933 -8.60956e-10 12.132 0.00217772C12.2019 0.0157416 12.262 0.0210363 12.3177 0.0394918C12.7114 0.169945 12.9426 0.438544 13 0.852222C13 4.62263 13 8.39303 13 12.1759C12.9957 12.1967 12.9887 12.2048 12.9874 12.2136C12.9472 12.482 12.8024 12.6834 12.5846 12.8354C12.4537 12.9267 12.3056 12.9777 12.1478 13C8.38219 13 4.6166 13 0.839333 12.9977C0.531189 12.9487 0.292914 12.8041 0.138649 12.5475C0.071807 12.4363 0.0449947 12.301 0 12.1767ZM6.9188 4.86777C6.9188 4.86777 6.91888 4.87319 6.90958 4.86506C6.88399 4.86115 6.8584 4.85386 6.8328 4.85383C6.27319 4.85318 5.71359 4.85314 5.15398 4.85391C5.12608 4.85395 5.0982 4.86233 5.06436 4.87727C5.0638 4.88928 5.06274 4.90129 5.06274 4.9133C5.06267 6.94508 5.06266 8.97687 5.0628 11.0087C5.06281 11.0299 5.06484 11.0511 5.06603 11.0745C5.70866 11.0745 6.34747 11.0745 6.99113 11.0745C6.99113 11.042 6.99114 11.0136 6.99114 10.9851C6.99114 10.003 6.99096 9.02077 6.99145 8.03858C6.99149 7.95696 6.99496 7.8753 6.99869 7.79374C7.00983 7.55038 7.03663 7.30987 7.12055 7.07854C7.23019 6.77626 7.42891 6.56499 7.74067 6.472C7.93773 6.41323 8.14068 6.39906 8.34376 6.43088C8.52107 6.45867 8.68367 6.52183 8.81485 6.65375C8.98451 6.82436 9.06846 7.0365 9.09718 7.26668C9.12765 7.51098 9.14678 7.75825 9.14815 8.00435C9.15367 8.99855 9.15044 9.99279 9.15045 10.987C9.15045 11.0154 9.15045 11.0438 9.15045 11.0785C9.79734 11.0785 10.4371 11.0785 11.0842 11.069C11.0872 11.0455 11.0929 11.022 11.0929 10.9984C11.0934 9.77673 11.0935 8.55504 11.0924 7.33335C11.0924 7.30677 11.0792 7.2802 11.0655 7.24326C11.0551 6.83827 11.0022 6.44018 10.8769 6.05321C10.6563 5.37191 10.2046 4.9463 9.49929 4.79365C9.1593 4.72006 8.81801 4.7024 8.47269 4.73733C8.15507 4.76945 7.86284 4.87408 7.59127 5.03955C7.32268 5.2032 7.11309 5.42507 6.94208 5.68201C6.93916 5.65365 6.93382 5.6253 6.93372 5.59694C6.93301 5.38326 6.9341 5.16957 6.93245 4.9559C6.93222 4.9265 6.92003 4.8972 6.9188 4.86777ZM1.93047 11.0842C1.95159 11.0872 1.97271 11.0929 1.99383 11.0929C2.58979 11.0934 3.18575 11.0935 3.78171 11.0926C3.80688 11.0926 3.83204 11.0825 3.8571 11.0793C3.8571 11.0793 3.85483 11.0794 3.86193 11.0695C3.86499 11.046 3.87072 11.0224 3.87072 10.9989C3.87114 8.9826 3.87117 6.96632 3.87043 4.95005C3.87042 4.92244 3.86026 4.89484 3.8571 4.86734C3.8571 4.86734 3.85721 4.86961 3.84731 4.86251C3.82618 4.85946 3.80505 4.85375 3.78392 4.85373C3.18768 4.85326 2.59145 4.8531 1.99521 4.85428C1.97111 4.85433 1.94705 4.86792 1.92361 4.87964C1.92361 4.87964 1.92018 4.88252 1.91386 4.89258C1.91147 4.9163 1.90697 4.94003 1.90697 4.96376C1.90665 6.97472 1.90661 8.98568 1.90735 10.9966C1.90736 11.0242 1.91752 11.0518 1.92067 11.0793C1.92067 11.0793 1.92057 11.0771 1.93047 11.0842ZM1.96039 2.28499C1.79633 2.53462 1.74376 2.80719 1.79046 3.10098C1.87339 3.6227 2.33287 4.02305 2.87832 4.02864C3.1633 4.03156 3.41838 3.93873 3.63111 3.74737C3.89696 3.50823 4.02759 3.20707 4.00726 2.84857C3.9858 2.47019 3.81442 2.16993 3.49565 1.96626C2.97842 1.63579 2.31934 1.7731 1.96039 2.28499Z" fill="#323232"/>
</svg>
